# xmcd CD database file generated by OrangeCD 6.4
#
# Track frame offsets:
#	150
#	28875
#	58776
#	77735
#	99881
#	122623
#	142224
#	159895
#	186594
#	213282
#	228276
#	248613
#
# Disc length: 3558 seconds
#
# Revision: 0
# Processed by: cddbd v1.5.2PL0 Copyright (c) Steve Scherf et al.
# Submitted via: OrangeCD 6.4
#
DISCID=9e0de40c
DTITLE=Various Artist - Ishumar 2. New Tuareg Guitars
DYEAR=2011
DGENRE=
TTITLE0=Ibrahim Djo Experience - Anchar
TTITLE1=Amanar - Alghafiat
TTITLE2=Tarbiyat - Issalalkas
TTITLE3=Kel Assouf - Imidiwane
TTITLE4=Nabil Baly Othmani - Edjmayegh s'emeli
TTITLE5=Moussa Bilalan Ag Ganta - Tebade
TTITLE6=Tiwitine - Tiwitine
TTITLE7=Mouma Bob and Imawalan - MNJ
TTITLE8=Moussa Sidi - Aggna nou tamashack
TTITLE9=Faris Amine Bottazzi - Temitit imajighen
TTITLE10=Tamkilwate - Alilagh iridjwane
TTITLE11=Atri N'Assouf - Aitma
EXTD=
EXTT0=
EXTT1=
EXTT2=
EXTT3=
EXTT4=
EXTT5=
EXTT6=
EXTT7=
EXTT8=
EXTT9=
EXTT10=
EXTT11=
PLAYORDER=
